<svg xmlns="http://www.w3.org/2000/svg" width="13" height="12" viewBox="0 0 13 12"><defs><clipPath id="7a43a"><path fill="#fff" d="M11.379.667H1.62c-.383 0-.697.338-.697.713v7.319c0 .374.314.634.697.634h.697v1.584c0 .376.282.44.629.277l3.748-1.86h4.684c.383 0 .697-.26.697-.635V1.38c0-.375-.314-.713-.697-.713z"/></clipPath></defs><g><g><path fill="none" stroke="#889099" stroke-miterlimit="20" stroke-width="3" d="M11.379.667H1.62c-.383 0-.697.338-.697.713v7.319c0 .374.314.634.697.634h.697v1.584c0 .376.282.44.629.277l3.748-1.86v0h4.684c.383 0 .697-.26.697-.635V1.38c0-.375-.314-.713-.697-.713z" clip-path="url(&quot;#7a43a&quot;)"/></g></g></svg>